<mxfile>
	<diagram name="SOP for Project Management for Renovation Works in Singapore" >
		<mxGraphModel>
			<root>
				<mxCell id="0"/>
				<mxCell id="1" parent="0"/>
				<mxCell id="2" value="Define the Project Scope" style="ellipse;whiteSpace=wrap;html=1;" parent="1">
					<mxGeometry x="200" y="50" width="100" height="50" as="geometry"/>
				</mxCell>
				<mxCell id="3" value="Assemble the Project Team" style="ellipse;whiteSpace=wrap;html=1;" parent="1">
					<mxGeometry x="200" y="150" width="100" height="50" as="geometry"/>
				</mxCell>
				<mxCell id="4" value="Develop a Project Plan" style="ellipse;whiteSpace=wrap;html=1;" parent="1">
					<mxGeometry x="200" y="250" width="100" height="50" as="geometry"/>
				</mxCell>
				<mxCell id="5" value="Obtain Relevant Approvals and Permits" style="ellipse;whiteSpace=wrap;html=1;" parent="1">
					<mxGeometry x="200" y="350" width="100" height="50" as="geometry"/>
				</mxCell>
				<mxCell id="6" value="Conduct Site Inspection and Assessment" style="ellipse;whiteSpace=wrap;html=1;" parent="1">
					<mxGeometry x="400" y="50" width="100" height="50" as="geometry"/>
				</mxCell>
				<mxCell id="7" value="Develop Detailed Designs and Specifications" style="ellipse;whiteSpace=wrap;html=1;" parent="1">
					<mxGeometry x="400" y="150" width="100" height="50" as="geometry"/>
				</mxCell>
				<mxCell id="8" value="Procure Materials and Equipment" style="ellipse;whiteSpace=wrap;html=1;" parent="1">
					<mxGeometry x="400" y="250" width="100" height="50" as="geometry"/>
				</mxCell>
				<mxCell id="9" value="Monitor Progress and Quality" style="ellipse;whiteSpace=wrap;html=1;" parent="1">
					<mxGeometry x="400" y="350" width="100" height="50" as="geometry"/>
				</mxCell>
				<mxCell id="10" value="Manage Stakeholder Communication" style="ellipse;whiteSpace=wrap;html=1;" parent="1">
					<mxGeometry x="600" y="50" width="100" height="50" as="geometry"/>
				</mxCell>
				<mxCell id="11" value="Conduct Project Closure" style="ellipse;whiteSpace=wrap;html=1;" parent="1">
					<mxGeometry x="600" y="150" width="100" height="50" as="geometry"/>
				</mxCell>
				<mxCell id="12" value="Review and Update the Project Plan" style="
style="ellipse;whiteSpace=wrap;html=1;" parent="1">
<mxGeometry x="600" y="250" width="100" height="50" as="geometry"/>
</mxCell>
<mxCell id="13" value="Policy" style="rectangle;whiteSpace=wrap;html=1;" parent="1">
<mxGeometry x="20" y="470" width="80" height="40" as="geometry"/>
</mxCell>
<mxCell id="14" value="Meta Data" style="rectangle;whiteSpace=wrap;html=1;" parent="1">
<mxGeometry x="120" y="470" width="80" height="40" as="geometry"/>
</mxCell>
<mxCell id="15" value="Purpose" style="rectangle;whiteSpace=wrap;html=1;" parent="1">
<mxGeometry x="220" y="470" width="80" height="40" as="geometry"/>
</mxCell>
<mxCell id="16" value="Scope" style="rectangle;whiteSpace=wrap;html=1;" parent="1">
<mxGeometry x="320" y="470" width="80" height="40" as="geometry"/>
</mxCell>
<mxCell id="17" value="Responsibilities" style="rectangle;whiteSpace=wrap;html=1;" parent="1">
<mxGeometry x="420" y="470" width="80" height="40" as="geometry"/>
</mxCell>
<mxCell id="18" value="Definitions" style="rectangle;whiteSpace=wrap;html=1;" parent="1">
<mxGeometry x="520" y="470" width="80" height="40" as="geometry"/>
</mxCell>
<mxCell id="19" value="Procedure" style="rectangle;whiteSpace=wrap;html=1;" parent="1">
<mxGeometry x="620" y="470" width="80" height="40" as="geometry"/>
</mxCell>
<mxCell id="20" value="Effectiveness" style="rectangle;whiteSpace=wrap;html=1;" parent="1">
<mxGeometry x="720" y="470" width="80" height="40" as="geometry"/>
</mxCell>
<mxCell id="21" value="Criteria" style="rectangle;whiteSpace=wrap;html=1;" parent="1">
<mxGeometry x="820" y="470" width="80" height="40" as="geometry"/>
</mxCell>
<mxCell id="22" value="Optional" style="rectangle;whiteSpace=wrap;html=1;" parent="1">
<mxGeometry x="920" y="470" width="80" height="40" as="geometry"/>
</mxCell>
<mxCell id="23" value="References" style="rectangle;whiteSpace=wrap;html=1;" parent="1">
<mxGeometry x="1020" y="470" width="80" height="40" as="geometry"/>
</mxCell>
<mxCell id="24" value="Process Map" style="rectangle;whiteSpace=wrap;html=1;" parent="1">
<mxGeometry x="1120" y="470
" width="80" height="40" as="geometry"/>
</mxCell>
<mxCell id="25" value="Revisions" style="rectangle;whiteSpace=wrap;html=1;" parent="1">
<mxGeometry x="1220" y="470" width="80" height="40" as="geometry"/>
</mxCell>
<mxCell id="26" value="Create Policy for Project Management for Renovation Works in Singapore Context" style="whiteSpace=wrap;html=1;" parent="2">
<mxGeometry x="260" y="70" width="760" height="40" as="geometry"/>
</mxCell>
<mxCell id="27" value="Define Meta Data including Revision History" style="whiteSpace=wrap;html=1;" parent="3">
<mxGeometry x="50" y="140" width="260" height="40" as="geometry"/>
</mxCell>
<mxCell id="28" value="Define Purpose of Policy" style="whiteSpace=wrap;html=1;" parent="3">
<mxGeometry x="410" y="140" width="260" height="40" as="geometry"/>
</mxCell>
<mxCell id="29" value="Define Scope of Policy" style="whiteSpace=wrap;html=1;" parent="3">
<mxGeometry x="770" y="140" width="260" height="40" as="geometry"/>
</mxCell>
<mxCell id="30" value="Identify Roles and Responsibilities" style="whiteSpace=wrap;html=1;" parent="3">
<mxGeometry x="50" y="220" width="260" height="40" as="geometry"/>
</mxCell>
<mxCell id="31" value="Define Key Terms and Definitions" style="whiteSpace=wrap;html=1;" parent="3">
<mxGeometry x="410" y="220" width="260" height="40" as="geometry"/>
</mxCell>
<mxCell id="32" value="Outline Procedure for Project Management of Renovation Works in Singapore" style="whiteSpace=wrap;html=1;" parent="3">
<mxGeometry x="770" y="220" width="260" height="40" as="geometry"/>
</mxCell>
<mxCell id="33" value="Establish Criteria for Measuring Effectiveness of Policy" style="whiteSpace=wrap;html=1;" parent="3">
<mxGeometry x="50" y="300" width="260" height="40" as="geometry"/>
</mxCell>
<mxCell id="34" value="Include Optional Information" style="whiteSpace=wrap;html=1;" parent="3">
<mxGeometry x="410" y="300" width="260" height="40" as="geometry"/>
</mxCell>
<mxCell id="35" value="Include References" style="whiteSpace=wrap;html=1;" parent="3">
<mxGeometry x="770" y="300" width="260" height="40" as="geometry"/>
</mxCell>
<mxCell id="36" value="Create Process Map for Project Management of Renovation Works in Singapore" style="whiteSpace=wrap;html=1;" parent="4">
<mxGeometry x="50" y="70" width="1170" height="40" as="geometry"/>
</mxCell>
<mxCell id="37" value="" style="rounded=1;whiteSpace=wrap;html=1;fillColor=#ffffff;strokeColor=#000000;" parent="5">
<mxGeometry x="20" y="120" width="80" height="40" as="geometry"/>
</mxCell>
<mxCell id="38" value="" style="rounded=1;whiteSpace=wrap;html=1;fillColor=#ffffff;strokeColor=#000000;" parent="5">
<mxGeometry x="20" y="200" width="80" height="40" as="geometry"/>
</mxCell>
<mxCell id="39" value="" style="rounded=1;whiteSpace=wrap;html=1;fillColor=#ffffff;strokeColor=#000000;" parent="5">
<mxGeometry x="20" y="280" width="80" height="40" as="geometry"/>
</mxCell>
<mxCell id="40" value="" style="rounded=1;whiteSpace=wrap;html=1;fillColor=#ffffff;strokeColor=#000000;" parent="5">
<mxGeometry x="20" y="360" width="80" height="40" as="geometry"/>
</mxCell>
<mxCell id="41" value="" style="rounded=1;whiteSpace=wrap;html=1;fillColor=#ffffff;strokeColor=#000000;" parent="5">
<mxGeometry x="20" y="440" width="80" height="40" as="geometry"/>
</mxCell>
<mxCell id="42" value="" style="rounded=1;whiteSpace=wrap;html=1;fillColor=#ffffff;strokeColor=#000000;" parent="5">
<mxGeometry x="20" y="520" width="80" height="40" as="geometry"/>
</mxCell>
<mxCell id="43" value="" style="rounded=1;whiteSpace=wrap;html=1;fillColor=#ffffff;strokeColor=#000000;" parent="5">
<mxGeometry x="20" y="600" width="80" height="40" as="geometry"/>
</mxCell>
<mxCell id="44" value="" style="rounded=1;whiteSpace=wrap;html=1;fillColor=#ffffff;strokeColor=#000000;" parent="5">
<mxGeometry x="20" y="680" width="80" height="40" as="geometry"/>
</mxCell>
<mxCell id="45" value="Start" style="ellipse;whiteSpace=wrap;html=1;fillColor=#ffffff;strokeColor=#000000;" parent="5">
<mxGeometry x="130" y="120" width="80" height="40" as="geometry"/>
</mxCell>
<mxCell id="46" value="Define Scope of Project" style="rounded=1;whiteSpace=wrap;html=1;fillColor=#ffffff;strokeColor=#000000;" parent="5">
<mxGeometry x="320" y="120" width="180" height="40" as="geometry"/>
</mxCell>
<mxCell id="47" value="Determine Budget and Timeline" style="rounded=1;whiteSpace=wrap;html=1;fillColor=#ffffff;strokeColor=#000000;" parent="5">
<mxGeometry x="320" y="200" width="180" height="40" as="geometry"/>
</mxCell>
<mxCell id="48" value="Identify Resources and Constraints" style="rounded=1;whiteSpace=wrap;html=1;fillColor=#ffffff;strokeColor=#000000;" parent="5">
<mxGeometry x="320" y="280" width="180" height="40" as="geometry"/>
</mxCell>
<mxCell id="49" value="Develop Project Plan" style="rounded=1;whiteSpace=wrap;html=1;fillColor=#ffffff;strokeColor=#000000;" parent="5">
<mxGeometry x="320" y="360" width="180" height="40" as="geometry"/>
</mxCell>
<mxCell id="50" value="Obtain Approvals" style="rounded=1;whiteSpace=wrap;html=1;fillColor=#ffffff;strokeColor=#000000;" parent="5">
<mxGeometry x="320" y="440" width="180" height="40" as="geometry"/>
</mxCell>
<mxCell id="51" value="Execute Project Plan" style="rounded=1;whiteSpace=wrap;html=1;fillColor=#ffffff;strokeColor=#000000;" parent="5">
<mxGeometry x="320" y="520" width="180" height="40" as="geometry"/>
</mxCell>
<mxCell id="52" value="Monitor and Control Progress" style="rounded=1;whiteSpace=wrap;html=1;fillColor=#ffffff;strokeColor=#000000;" parent="5">
<mxGeometry x="320" y="600" width="180" height="40" as="geometry"/>
</mxCell>
<mxCell id="53" value="Close Out Project" style="rounded=1;whiteSpace=wrap;html=1;fillColor=#ffffff;strokeColor=#000000;" parent="5">
<mxGeometry x="320" y="680" width="180" height="40" as="geometry"/>
</mxCell>
<mxCell id="54" value="Approved" style="ellipse;whiteSpace=wrap;html=1;fillColor=#ffffff;strokeColor=#000000;" parent="5">
<mxGeometry x="610" y="200" width="80" height="40" as="geometry"/>
</mxCell>
<mxCell id="55" value="Project Plan" style="rounded=1;whiteSpace=wrap;html=1;fillColor=#ffffff;strokeColor=#000000;" parent="5">
<mxGeometry x="610" y="120" width="140" height="40" as="geometry"/>
</mxCell>
<mxCell id="56" value="Monitor and Control Plan" style="rounded=1;whiteSpace=wrap;html=1;fillColor=#ffffff;strokeColor=#000000;" parent="5">
<mxGeometry x="610" y="360" width="140" height="40" as="geometry"/>
</mxCell>
<mxCell id="57" value="Updated Project Plan" style="rounded=1
<mxCell id="58" value="Project Constraints" style="rounded=1;whiteSpace=wrap;html=1;fillColor=#ffffff;strokeColor=#000000;" parent="5">
					<mxGeometry x="610" y="440" width="140" height="40" as="geometry"/>
				</mxCell>
				<mxCell id="59" value="Completed Project" style="rounded=1;whiteSpace=wrap;html=1;fillColor=#ffffff;strokeColor=#000000;" parent="5">
					<mxGeometry x="610" y="680" width="140" height="40" as="geometry"/>
				</mxCell>
				<mxCell id="60" value="Approved Project Plan" style="rounded=1;whiteSpace=wrap;html=1;fillColor=#ffffff;strokeColor=#000000;" parent="5">
					<mxGeometry x="820" y="120" width="160" height="40" as="geometry"/>
				</mxCell>
				<mxCell id="61" value="Project Progress Reports" style="rounded=1;whiteSpace=wrap;html=1;fillColor=#ffffff;strokeColor=#000000;" parent="5">
					<mxGeometry x="820" y="200" width="180" height="40" as="geometry"/>
				</mxCell>
				<mxCell id="62" value="Approved Updated Project Plan" style="rounded=1;whiteSpace=wrap;html=1;fillColor=#ffffff;strokeColor=#000000;" parent="5">
					<mxGeometry x="820" y="360" width="200" height="40" as="geometry"/>
				</mxCell>
				<mxCell id="63" value="Updated Project Constraints" style="rounded=1;whiteSpace=wrap;html=1;fillColor=#ffffff;strokeColor=#000000;" parent="5">
					<mxGeometry x="820" y="440" width="200" height="40" as="geometry"/>
				</mxCell>
				<mxCell id="64" value="Project Closeout Report" style="rounded=1;whiteSpace=wrap;html=1;fillColor=#ffffff;strokeColor=#000000;" parent="5">
					<mxGeometry x="820" y="600" width="200" height="40" as="geometry"/>
				</mxCell>
				<mxCell id="65" value="Project Charter" style="rounded=1;whiteSpace=wrap;html=1;fillColor=#ffffff;strokeColor=#000000;" parent="5">
					<mxGeometry x="110" y="120" width="120" height="40" as="geometry"/>
				</mxCell>
				<mxCell id="66" value="Stakeholder Register" style="rounded=1;whiteSpace=wrap;html=1;fillColor=#ffffff;strokeColor=#000000;" parent="5">
					<mxGeometry x="110" y="200" width="140" height="40" as="geometry"/>
				</mxCell>
				<mxCell id="67" value="Project Scope Statement" style="rounded=1;whiteSpace=wrap;html=1;fillColor=#ffffff;strokeColor=#000000;" parent="5">
					<mxGeometry x="110" y="280" width="180" height="40" as="geometry"/>
				</mxCell>
				<mxCell id="68" value="Work Breakdown Structure" style="rounded=1;whiteSpace=wrap;html=1;fillColor=#ffffff;strokeColor=#000000;" parent="5">
					<mxGeometry x="110" y="360" width="180" height="40" as="geometry"/>
				</mxCell>
				<mxCell id="69" value="Project Schedule" style="rounded=1;whiteSpace=wrap;html=1;fillColor=#ffffff;strokeColor=#000000;" parent="5">
					<mxGeometry x="110" y="440" width="140" height="40" as="geometry"/>
				</mxCell>
				<mxCell id="70" value="Project Budget" style="rounded=1;whiteSpace=wrap;html=1;fillColor=#ffffff;strokeColor=#000000;" parent="5">
					<mxGeometry x="110" y="520" width="120" height="40" as="geometry"/>
				</mxCell>
				<mxCell id="71" value="Quality Management Plan" style="rounded=1;whiteSpace=wrap;html=1;fillColor=#ffffff;strokeColor=#000000;" parent="5">
					<mxGeometry x="110" y="600" width="180" height="40" as="geometry"/>
				</mxCell>
				<mxCell id="72" value="Risk Register" style="rounded=1;whiteSpace=wrap;html=1;fillColor=#ffffff;strokeColor=#000000;" parent="5">
					<mxGeometry x="110" y="680" width="120" height="40" as="geometry"/>
				</mxCell>
				<mxCell id="73" value="Initiating" style="rounded=1;whiteSpace=wrap;html=1;fillColor=#ffffff;strokeColor=#000000;" parent="5">
					<mxGeometry x="370" y="80" width="80" height="40" as="geometry"/>
				</mxCell>
				<mxCell id="74" value="Planning" style="rounded=1;whiteSpace=wrap;html=1;fillColor=#ffffff;strokeColor=#000000;" parent="5">
					<mxGeometry x="580" y="80" width="80" height="40" as="geometry"/>
				</mxCell>
				<mxCell id="75" value="Executing" style="rounded=1;whiteSpace=wrap;html=1;fillColor=#ffffff;strokeColor=#000000;" parent="5">
					<mxGeometry x="770" y="80" width="80" height="40" as="geometry"/>
				</mxCell>
				<mxCell id="76" value="Monitoring and Controlling" style="rounded=1;whiteSpace=wrap;html=1;fillColor=#ffffff;strokeColor=#000000;" parent="5">
					<mxGeometry x="990" y="80" width="160" height="40" as="geometry"/>
				</mxCell>
				<mxCell id="77" value="Closing" style="rounded=1;whiteSpace=wrap;html=1;fillColor=#ffffff;strokeColor=#000000;" parent="5">
					<mxGeometry x="1200" y="80" width="80" height="40" as="geometry"/>
				</mxCell>
				<mxCell id="78" value="Develop Project Charter" style
        <mxCell id="78" value="Develop Project Charter" style="rounded=1;whiteSpace=wrap;html=1;fillColor=#ffffff;strokeColor=#000000;" parent="5">
					<mxGeometry x="300" y="240" width="160" height="40" as="geometry"/>
				</mxCell>
				<mxCell id="79" value="Identify Stakeholders" style="rounded=1;whiteSpace=wrap;html=1;fillColor=#ffffff;strokeColor=#000000;" parent="5">
					<mxGeometry x="300" y="360" width="160" height="40" as="geometry"/>
				</mxCell>
				<mxCell id="80" value="Develop Project Management Plan" style="rounded=1;whiteSpace=wrap;html=1;fillColor=#ffffff;strokeColor=#000000;" parent="5">
					<mxGeometry x="500" y="240" width="200" height="40" as="geometry"/>
				</mxCell>
				<mxCell id="81" value="Scope Management" style="rounded=1;whiteSpace=wrap;html=1;fillColor=#ffffff;strokeColor=#000000;" parent="5">
					<mxGeometry x="520" y="320" width="120" height="40" as="geometry"/>
				</mxCell>
				<mxCell id="82" value="Schedule Management" style="rounded=1;whiteSpace=wrap;html=1;fillColor=#ffffff;strokeColor=#000000;" parent="5">
					<mxGeometry x="520" y="400" width="140" height="40" as="geometry"/>
				</mxCell>
				<mxCell id="83" value="Cost Management" style="rounded=1;whiteSpace=wrap;html=1;fillColor=#ffffff;strokeColor=#000000;" parent="5">
					<mxGeometry x="520" y="480" width="120" height="40" as="geometry"/>
				</mxCell>
				<mxCell id="84" value="Quality Management" style="rounded=1;whiteSpace=wrap;html=1;fillColor=#ffffff;strokeColor=#000000;" parent="5">
					<mxGeometry x="520" y="560" width="140" height="40" as="geometry"/>
				</mxCell>
				<mxCell id="85" value="Resource Management" style="rounded=1;whiteSpace=wrap;html=1;fillColor=#ffffff;strokeColor=#000000;" parent="5">
					<mxGeometry x="520" y="640" width="160" height="40" as="geometry"/>
				</mxCell>
				<mxCell id="86" value="Risk Management" style="rounded=1;whiteSpace=wrap;html=1;fillColor=#ffffff;strokeColor=#000000;" parent="5">
					<mxGeometry x="520" y="720" width="140" height="40" as="geometry"/>
				</mxCell>
				<mxCell id="87" value="Procurement Management" style="rounded=1;whiteSpace=wrap;html=1;fillColor=#ffffff;strokeColor=#000000;" parent="5">
					<mxGeometry x="520" y="800" width="200" height="40" as="geometry"/>
				</mxCell>
				<mxCell id="88" value="Implement Project Plan" style="rounded=1;whiteSpace=wrap;html=1;fillColor=#ffffff;strokeColor=#000000;" parent="5">
<mxGeometry x="700" y="240" width="160" height="40" as="geometry"/>
</mxCell>
<mxCell id="89" value="Execute Project Work" style="rounded=1;whiteSpace=wrap;html=1;fillColor=#ffffff;strokeColor=#000000;" parent="5">
<mxGeometry x="700" y="360" width="160" height="40" as="geometry"/>
</mxCell>
<mxCell id="90" value="Monitor and Control Project Work" style="rounded=1;whiteSpace=wrap;html=1;fillColor=#ffffff;strokeColor=#000000;" parent="5">
<mxGeometry x="900" y="240" width="260" height="40" as="geometry"/>
</mxCell>
<mxCell id="91" value="Scope Verification" style="rounded=1;whiteSpace=wrap;html=1;fillColor=#ffffff;strokeColor=#000000;" parent="5">
<mxGeometry x="920" y="320" width="120" height="40" as="geometry"/>
</mxCell>
<mxCell id="92" value="Scope Control" style="rounded=1;whiteSpace=wrap;html=1;fillColor=#ffffff;strokeColor=#000000;" parent="5">
<mxGeometry x="920" y="400" width="120" height="40" as="geometry"/>
</mxCell>
<mxCell id="93" value="Schedule Control" style="rounded=1;whiteSpace=wrap;html=1;fillColor=#ffffff;strokeColor=#000000;" parent="5">
<mxGeometry x="920" y="480" width="140" height="40" as="geometry"/>
</mxCell>
<mxCell id="94" value="Cost Control" style="rounded=1;whiteSpace=wrap;html=1;fillColor=#ffffff;strokeColor=#000000;" parent="5">
<mxGeometry x="920" y="560" width="120" height="40" as="geometry"/>
</mxCell>
<mxCell id="95" value="Quality Control" style="rounded=1;whiteSpace=wrap;html=1;fillColor=#ffffff;strokeColor=#000000;" parent="5">
<mxGeometry x="920" y="640" width="140" height="40" as="geometry"/>
</mxCell>
<mxCell id="96" value="Resource Control" style="rounded=1;whiteSpace=wrap;html=1;fillColor=#ffffff;strokeColor=#000000;" parent="5">
<mxGeometry x="920" y="720" width="160" height="40" as="geometry"/>
</mxCell>
<mxCell id="97" value="Risk Control" style="rounded=1;whiteSpace=wrap;html=1;fillColor=#ffffff;strokeColor=#000000;" parent="5">
<mxGeometry x="920" y="800" width="140" height="40" as="geometry"/>
</mxCell>
<mxCell id="98" value="Procurement Control" style="rounded=1;whiteSpace=wrap ;html=1;fillColor=#ffffff;strokeColor=#000000;" parent="5">
<mxGeometry x="920" y="880" width="180" height="40" as="geometry"/>
</mxCell>
<mxCell id="99" value="Closing" style="rounded=1;whiteSpace=wrap;html=1;fillColor=#ffffff;strokeColor=#000000;" parent="5">
<mxGeometry x="1200" y="240" width="120" height="40" as="geometry"/>
</mxCell>
<mxCell id="100" value="Contract Closeout" style="rounded=1;whiteSpace=wrap;html=1;fillColor=#ffffff;strokeColor=#000000;" parent="5">
<mxGeometry x="1220" y="320" width="140" height="40" as="geometry"/>
</mxCell>
<mxCell id="101" value="Administrative Closure" style="rounded=1;whiteSpace=wrap;html=1;fillColor=#ffffff;strokeColor=#000000;" parent="5">
<mxGeometry x="1220" y="400" width="160" height="40" as="geometry"/>
</mxCell>
<mxCell id="102" value="Lessons Learned" style="rounded=1;whiteSpace=wrap;html=1;fillColor=#ffffff;strokeColor=#000000;" parent="5">
<mxGeometry x="1220" y="480" width="140" height="40" as="geometry"/>
</mxCell>
<mxCell id="103" value="Project Closure" style="rounded=1;whiteSpace=wrap;html=1;fillColor=#ffffff;strokeColor=#000000;" parent="5">
<mxGeometry x="1220" y="560" width="140" height="40" as="geometry"/>
</mxCell>
<mxCell id="104" value="Audit" style="rounded=1;whiteSpace=wrap;html=1;fillColor=#ffffff;strokeColor=#000000;" parent="5">
<mxGeometry x="1220" y="640" width="80" height="40" as="geometry"/>
</mxCell>
<mxCell id="105" value="End Project" style="rounded=1;whiteSpace=wrap;html=1;fillColor=#ffffff;strokeColor=#000000;" parent="5">
<mxGeometry x="1220" y="720" width="120" height="40" as="geometry"/>
</mxCell>
<mxCell id="106" value="Review of Final Project Results" style="rounded=1;whiteSpace=wrap;html=1;fillColor=#ffffff;strokeColor=#000000;" parent="5">
<mxGeometry x="1220" y="800" width="180" height="40" as="geometry"/>
</mxCell>
</root>
</mxGraphModel>
</diagram>
</mxfile>